<svg height="512" viewBox="0 0 512 512" width="512" xmlns="http://www.w3.org/2000/svg"><path d="M493.278 154.515l-22.625 22.641L334.871 41.39l22.625-22.641c25-25 65.531-25 90.531 0l45.25 45.266c24.969 24.985 24.969 65.5.001 90.5zM176.465 426.031c-6.25 6.25-6.25 16.375 0 22.625 6.25 6.281 16.375 6.281 22.625 0l248.938-248.875-22.656-22.641-248.907 248.891zM63.309 312.906c-6.25 6.25-6.25 16.375 0 22.625s16.375 6.25 22.625 0L334.871 86.64l-22.625-22.625L63.309 312.906zM357.465 109.25L108.559 358.156c-12.5 12.469-12.469 32.75 0 45.25 12.5 12.5 32.75 12.563 45.281-.031l248.906-248.859-45.281-45.266zM153.778 471.219c-7.656-7.656-11.344-17.375-12.719-27.375-3.25.5-6.531.969-9.875.969-17.094 0-33.156-6.688-45.25-18.781-12.094-12.125-18.75-28.156-18.75-45.25 0-3.125.469-6.156.906-9.188-10.344-1.406-19.906-5.938-27.406-13.438-.719-.719-.969-1.688-1.625-2.469L-.004 512l155.906-39.031c-.687-.625-1.468-1.094-2.124-1.75z"/></svg>